# xmcd
#
# Track frame offsets:
#	150
#	12711
#	24698
#	36597
#	48162
#	60041
#	74901
#	87118
#	99533
#	110548
#	122907
#	135252
#	147189
#	159576
#	170447
#	182924
#	200189
#	211558
#	222961
#	234996
#	247207
#	258612
#	270989
#	283570
#	296089
#	307962
#	319859
#
# Disc length: 4430 seconds
#
# Revision: 1
# Processed by: cddbd v1.5.2PL0 Copyright (c) Steve Scherf et al.
# Submitted via: audiograbber 1.83.01
#
DISCID=9a114c1b
DTITLE=Billy Briggs - Bodacious Backwater Boogie (Cremo, 2001)
DYEAR=2001
DGENRE=Country
TTITLE0=Freckle-Face Snaggle-Tooth Gal
TTITLE1=Dip Snuff Stomp
TTITLE2=Big Little Darlin'
TTITLE3=I'm Not Gonna Lock The Door
TTITLE4=I'm Tired Of Taking Chances
TTITLE5=Midnight In Old Amarillo
TTITLE6=I'm Gonna Get Me A Bottle
TTITLE7=The Sissy Song
TTITLE8=Alarm Clock Boogie
TTITLE9=Third-Time Charm
TTITLE10=I'm Hanging My Tears Out To Dry
TTITLE11=Also Someone Else
TTITLE12=I Like Candy
TTITLE13=Honky Tonk Baby
TTITLE14=North Pole Boogie
TTITLE15=North Pole Boogie (Remake)
TTITLE16=On A Country Road
TTITLE17=Full-Blooded Texan
TTITLE18=The Battery To My Heart
TTITLE19=The Grandest Thing On Earth
TTITLE20=Texico New Mexico Joe
TTITLE21=Tell Your Ma And Pa
TTITLE22=On Top Of Pike's Peak
TTITLE23=Send Me Some Love
TTITLE24=Coffee-Sippin' Blues
TTITLE25=When
TTITLE26=I'll Bet You Never Cared
EXTD=
EXTT0=
EXTT1=
EXTT2=
EXTT3=
EXTT4=
EXTT5=
EXTT6=
EXTT7=
EXTT8=
EXTT9=
EXTT10=
EXTT11=
EXTT12=
EXTT13=
EXTT14=
EXTT15=
EXTT16=
EXTT17=
EXTT18=
EXTT19=
EXTT20=
EXTT21=
EXTT22=
EXTT23=
EXTT24=
EXTT25=
EXTT26=
PLAYORDER=
